# File created by Blade
# Date/Time:  Thu Jan 22 19:34:15 2015
# Frame Rate: 120.000 fps
#------------------------------------------------------
:FULLY-SPECIFIED
:DEGREES
1085
root -13.551265 14.789711 -8.593723 25.882746 -30.814189 26.311610
RightUpLeg -128.020998 -24.552533 -6.789093
RightLeg 137.110024 -0.000000 -0.000000
RightFoot -46.576472 -7.531959 8.345678
RightToeBase -2.133971 -0.000000 0.000000
LeftUpLeg -9.913282 40.109438 25.418997
LeftLeg 1.840831 -0.000000 -0.000000
LeftFoot -4.733741 10.462982 -52.535975
LeftToeBase 18.896166 -0.000000 -0.000000
Spine 15.266058 6.768452 28.707548
RightShoulder -4.134145 -6.255297 -10.108642
RightArm 26.292045 38.578358 83.998709
RightForeArm -25.984518 -0.000000 39.247856
RightHand 29.644914 -0.000000 -88.931553
RightHandThumb1 -24.326973 -0.000000 -32.862282
LeftShoulder -29.452754 -13.549683 63.252968
LeftArm 67.069622 -53.525153 -29.275403
LeftForeArm 22.943385 0.000000 11.273498
LeftHand -0.111241 -0.000000 17.871789
LeftHandThumb1 -26.253704 0.000000 33.147579
Head 13.260252 37.033345 54.356378
1086
root -13.554439 14.787171 -8.600631 25.885439 -30.811905 26.298422
RightUpLeg -128.038210 -24.523819 -6.761338
RightLeg 137.116073 -0.000000 -0.000000
RightFoot -46.577013 -7.547569 8.334035
RightToeBase -2.074882 -0.000000 0.000000
LeftUpLeg -9.925476 40.057460 25.454640
LeftLeg 1.879353 -0.000000 -0.000000
LeftFoot -4.781431 10.495588 -52.539895
LeftToeBase 18.922755 -0.000000 -0.000000
Spine 15.250940 6.762663 28.707422
RightShoulder -4.137027 -6.281819 -10.094025
RightArm 26.367144 38.550614 84.038198
RightForeArm -25.985942 -0.000000 39.205280
RightHand 29.645912 -0.000000 -89.034042
RightHandThumb1 -24.326973 -0.000000 -32.862282
LeftShoulder -29.449732 -13.576360 63.279529
LeftArm 67.104040 -53.494957 -29.337812
LeftForeArm 22.943337 0.000000 11.309088
LeftHand -0.139677 -0.000000 17.844866
LeftHandThumb1 -26.253704 0.000000 33.147579
Head 13.218697 37.001373 54.323355
1087
root -13.556855 14.783749 -8.606138 25.879433 -30.799088 26.286962
RightUpLeg -128.044759 -24.507529 -6.735577
RightLeg 137.125848 -0.000000 -0.000000
RightFoot -46.564929 -7.576401 8.325211
RightToeBase -2.129172 -0.000000 0.000000
LeftUpLeg -9.933155 40.024030 25.484411
LeftLeg 1.903448 -0.000000 -0.000000
LeftFoot -4.806208 10.516614 -52.532764
LeftToeBase 18.910441 -0.000000 -0.000000
Spine 15.260009 6.785813 28.720367
RightShoulder -4.182201 -6.411933 -10.058933
RightArm 26.496979 38.516022 84.093396
RightForeArm -26.083467 -0.000000 39.254679
RightHand 29.551583 -0.000000 -88.978528
RightHandThumb1 -24.326973 -0.000000 -32.862282
LeftShoulder -29.469072 -13.625507 63.318910
LeftArm 67.146740 -53.467337 -29.422352
LeftForeArm 22.939581 -0.000000 11.347114
LeftHand -0.163579 -0.000000 17.863000
LeftHandThumb1 -26.253704 0.000000 33.147579
Head 13.076551 37.014088 54.240649
1088
root -13.560495 14.779924 -8.614516 25.880811 -30.794588 26.262887
RightUpLeg -128.053881 -24.466066 -6.700708
RightLeg 137.126147 -0.000000 -0.000000
RightFoot -46.563423 -7.612159 8.308062
RightToeBase -2.151014 -0.000000 0.000000
LeftUpLeg -9.945705 39.999039 25.532241
LeftLeg 1.953556 -0.000000 -0.000000
LeftFoot -4.835855 10.513889 -52.541250
LeftToeBase 18.957538 -0.000000 -0.000000
Spine 15.260037 6.789736 28.736585
RightShoulder -4.194766 -6.442171 -10.033329
RightArm 26.564681 38.505366 84.150035
RightForeArm -25.985889 0.000000 39.286197
RightHand 29.644539 -0.000000 -88.951864
RightHandThumb1 -24.326973 -0.000000 -32.862282
LeftShoulder -29.459954 -13.617508 63.302714
LeftArm 67.216090 -53.486624 -29.507011
LeftForeArm 22.948181 -0.000000 11.395242
LeftHand -0.173634 0.000000 17.814082
LeftHandThumb1 -26.253704 0.000000 33.147579
Head 13.025546 36.996663 54.174803
1089
root -13.563302 14.776485 -8.622753 25.890730 -30.788244 26.236867
RightUpLeg -128.072196 -24.428850 -6.660568
RightLeg 137.130120 -0.000000 -0.000000
RightFoot -46.565387 -7.620221 8.322567
RightToeBase -2.124134 -0.000000 0.000000
LeftUpLeg -9.961250 39.999859 25.571669
LeftLeg 1.981530 -0.000000 -0.000000
LeftFoot -4.836137 10.518270 -52.521813
LeftToeBase 18.881147 -0.000000 -0.000000
Spine 15.252966 6.787717 28.748257
RightShoulder -4.199130 -6.445927 -10.011199
RightArm 26.588815 38.481005 84.164392
RightForeArm -26.011553 -0.000000 39.303718
RightHand 29.619222 -0.000000 -88.964626
RightHandThumb1 -24.326973 -0.000000 -32.862282
LeftShoulder -29.467029 -13.632763 63.317338
LeftArm 67.219885 -53.454618 -29.514868
LeftForeArm 22.943688 -0.000000 11.412228
LeftHand -0.133717 -0.000000 17.759714
LeftHandThumb1 -26.253704 0.000000 33.147579
Head 12.986839 37.017022 54.147259
1090
root -13.566126 14.771443 -8.631632 25.884360 -30.782678 26.225747
RightUpLeg -128.091587 -24.397278 -6.636367
RightLeg 137.139615 -0.000000 -0.000000
RightFoot -46.548717 -7.659162 8.305069
RightToeBase -2.201132 -0.000000 0.000000
LeftUpLeg -9.964203 40.033118 25.591992
LeftLeg 1.977529 -0.000000 -0.000000
LeftFoot -4.806229 10.512806 -52.471138
LeftToeBase 18.912618 -0.000000 -0.000000
Spine 15.246870 6.792382 28.741248
RightShoulder -4.201800 -6.448063 -9.980268
RightArm 26.624231 38.538262 84.227101
RightForeArm -26.203882 0.000000 39.338759
RightHand 29.644683 -0.000000 -88.913226
RightHandThumb1 -24.326973 -0.000000 -32.862282
LeftShoulder -29.453482 -13.613100 63.309665
LeftArm 67.241473 -53.461776 -29.522408
LeftForeArm 22.925911 -0.000000 11.424991
LeftHand -0.113157 -0.000000 17.785771
LeftHandThumb1 -26.253704 0.000000 33.147579
Head 12.930191 37.002622 54.107716
1091
root -13.567684 14.767411 -8.639489 25.866344 -30.774239 26.215487
RightUpLeg -128.094497 -24.375735 -6.614605
RightLeg 137.145596 -0.000000 -0.000000
RightFoot -46.551654 -7.677585 8.291915
RightToeBase -2.107138 -0.000000 0.000000
LeftUpLeg -9.960528 39.967078 25.641187
LeftLeg 2.025339 -0.000000 -0.000000
LeftFoot -4.860723 10.518488 -52.507906
LeftToeBase 18.901637 -0.000000 -0.000000
Spine 15.261223 6.786298 28.744356
RightShoulder -4.235139 -6.441310 -9.956731
RightArm 26.660902 38.426457 84.203808
RightForeArm -26.198483 -0.000000 39.291903
RightHand 29.417099 -0.000000 -89.060265
RightHandThumb1 -24.326973 -0.000000 -32.862282
LeftShoulder -29.459760 -13.573967 63.283506
LeftArm 67.251328 -53.465010 -29.497418
LeftForeArm 22.835092 -0.000000 11.437314
LeftHand -0.069900 0.000000 17.883421
LeftHandThumb1 -26.253704 0.000000 33.147579
Head 12.861937 37.030110 54.064827
1092
root -13.569187 14.762182 -8.649742 25.826243 -30.762669 26.212258
RightUpLeg -128.081746 -24.350269 -6.615267
RightLeg 137.152446 -0.000000 -0.000000
RightFoot -46.544344 -7.683810 8.292614
RightToeBase -2.111427 -0.000000 0.000000
LeftUpLeg -9.942897 39.940164 25.685783
LeftLeg 2.048527 -0.000000 -0.000000
LeftFoot -4.866639 10.526143 -52.475283
LeftToeBase 18.899577 -0.000000 -0.000000
Spine 15.297688 6.742472 28.732541
RightShoulder -4.229669 -6.461752 -9.950531
RightArm 26.747519 38.429027 84.291393
RightForeArm -26.365512 -0.000000 39.297976
RightHand 29.386814 0.000000 -89.055119
RightHandThumb1 -24.326973 -0.000000 -32.862282
LeftShoulder -29.460293 -13.559849 63.278561
LeftArm 67.182498 -53.457430 -29.393700
LeftForeArm 22.798610 -0.000000 11.429183
LeftHand -0.030702 -0.000000 17.947784
LeftHandThumb1 -26.253704 0.000000 33.147579
Head 12.823111 37.075980 54.042975
1093
root -13.570818 14.757101 -8.658069 25.806073 -30.758692 26.216217
RightUpLeg -128.102044 -24.327693 -6.601695
RightLeg 137.162411 -0.000000 -0.000000
RightFoot -46.529334 -7.722051 8.265662
RightToeBase -2.130589 -0.000000 0.000000
LeftUpLeg -9.938949 39.954995 25.699491
LeftLeg 2.049070 -0.000000 -0.000000
LeftFoot -4.844602 10.523221 -52.438195
LeftToeBase 18.861333 -0.000000 -0.000000
Spine 15.289732 6.748037 28.708716
RightShoulder -4.239813 -6.458219 -9.923780
RightArm 26.750173 38.391720 84.277611
RightForeArm -26.064843 -0.000000 39.285872
RightHand 29.649577 -0.000000 -89.099103
RightHandThumb1 -24.326973 -0.000000 -32.862282
LeftShoulder -29.442960 -13.544369 63.265756
LeftArm 67.223018 -53.457200 -29.394918
LeftForeArm 22.826138 -0.000000 11.412108
LeftHand -0.062610 -0.000000 18.051579
LeftHandThumb1 -26.253704 0.000000 33.147579
Head 12.771040 37.019771 54.033009
1094
root -13.572238 14.751907 -8.666846 25.774388 -30.758652 26.213565
RightUpLeg -128.093442 -24.297306 -6.609654
RightLeg 137.166897 -0.000000 -0.000000
RightFoot -46.526625 -7.713402 8.275011
RightToeBase -2.137188 -0.000000 0.000000
LeftUpLeg -9.912835 39.947714 25.734447
LeftLeg 2.053455 -0.000000 -0.000000
LeftFoot -4.849203 10.521178 -52.414112
LeftToeBase 18.863712 -0.000000 -0.000000
Spine 15.308288 6.737826 28.688235
RightShoulder -4.252364 -6.487236 -9.902319
RightArm 26.845805 38.346525 84.322648
RightForeArm -26.078021 -0.000000 39.224228
RightHand 29.621010 -0.000000 -89.211107
RightHandThumb1 -24.326973 -0.000000 -32.862282
LeftShoulder -29.448214 -13.535136 63.267862
LeftArm 67.297431 -53.456409 -29.452556
LeftForeArm 22.868186 0.000000 11.397289
LeftHand -0.063754 0.000000 18.138959
LeftHandThumb1 -26.253704 0.000000 33.147579
Head 12.736847 37.023163 54.038051
